<svg id="exnSi64zW7A1" xmlns="http://www.w3.org/2000/svg" xmlns:xlink="http://www.w3.org/1999/xlink" viewBox="0 0 2560 1440" shape-rendering="geometricPrecision" text-rendering="geometricPrecision" project-id="8a736d06e89d453488ae787ec2786625" export-id="a07538c6e2da4834af851fac14a8b9c0" cached="false"><g transform="matrix(4.004082 0 0 3.455885 479.282653 58.168369)"><g><polygon points="325.3,375 313.8,375 274.5,231.7 196.7,231.7 157.5,375 146,375 175.1,224.4 296.2,224.4" clip-rule="evenodd" fill="#533618" fill-rule="evenodd"/><polygon points="271.8,375 260.3,375 221.1,231.7 143.3,231.7 104,375 92.5,375 121.6,224.4 242.7,224.4" clip-rule="evenodd" fill="#694721" fill-rule="evenodd"/><polygon points="263.8,224.4 64.1,224.4 64.1,220 263.8,220" clip-rule="evenodd" fill="#634829" fill-rule="evenodd"/><polygon points="329.7,224.4 263.8,224.4 263.8,220 329.7,220" clip-rule="evenodd" fill="#533618" fill-rule="evenodd"/></g><g><path d="M186,25h135.2c4.6,0,8.1,3.6,8,8.2l-3.7,177.5c-.1,2.5-1,4.7-2.9,6.5s-4.1,2.7-6.6,2.7h-159.2c-2.5,0-4.6-.9-6.2-2.8-1.6-1.8-2.2-4.1-1.8-6.6L176.5,33c.8-4.5,4.9-8,9.5-8v0Z" clip-rule="evenodd" fill="#a7d6a7" fill-rule="evenodd"/><path d="M321.2,25h11.8c4.6,0,8.1,3.6,8,8.2l-3.7,177.5c-.1,2.5-1,4.7-2.9,6.5s-4.1,2.7-6.6,2.7h-11.8c2.5,0,4.7-.9,6.6-2.7s2.8-4,2.9-6.5l3.7-177.5c.1-4.6-3.4-8.2-8-8.2v0Z" clip-rule="evenodd" fill="#cfc" fill-rule="evenodd"/><path d="M59,220c-1.1-22.6,15.4-33.3,49.5-32c53.8,0,107.7,0,161.5,0v32c-70.3,0-140.7,0-211,0v0Z" clip-rule="evenodd" fill="#9c9" fill-rule="evenodd"/><path d="M332.6,220c-43.9,0-91.3,0-142.3,0-1.1-22.6,15.4-33.3,49.5-32h41.1c31.5-.6,48.7,10.1,51.7,32Z" clip-rule="evenodd" fill="#cfc" fill-rule="evenodd"/><path d="M186,25h135.2c4.6,0,8.1,3.6,8,8.2l-3.3,157.7c-10.7-8-26.1-10.4-41.9-10.1h-130.5L176.6,33.2c.7-4.7,4.8-8.2,9.4-8.2v0Z" clip-rule="evenodd" fill="#9c9" fill-rule="evenodd"/></g></g></svg>
