<svg id="eBpYDFvM6KR1" xmlns="http://www.w3.org/2000/svg" xmlns:xlink="http://www.w3.org/1999/xlink" viewBox="0 0 2560 1440" shape-rendering="geometricPrecision" text-rendering="geometricPrecision" project-id="8a736d06e89d453488ae787ec2786625" export-id="8da3007915254678ab790e4f83ac07db" cached="false"><g transform="matrix(4.876047 0 0 7.282814 304.7906-713.017554)"><g><path d="M360.6,173.9h-120.1c-7.9,0-14.4,6.5-14.4,14.4v95.9h134.5c7.9,0,14.4-6.5,14.4-14.4v-81.5c0-7.9-6.5-14.4-14.4-14.4v0Z" clip-rule="evenodd" fill="#71b1dd" fill-rule="evenodd"/><path d="M331.1,173.9h29c8.2,0,14.8,6.7,14.8,14.8v81.1c0,7.9-6.5,14.4-14.4,14.4h-29.5c-.2,0-.4-.2-.4-.4v-109.5c.1-.2.3-.4.5-.4v0Z" clip-rule="evenodd" fill="#99cbee" fill-rule="evenodd"/><path d="M57.8,208.6c-.1-.9,12.4-3,10.7-14.9l-9.9-66.8c-.9-6.4-6.4-11.1-12.9-11.1c54.9,0,109.9,0,164.8,0c6.5,0,11.9,4.7,12.9,11.1l12.3,81.7c-58.4,0-119.6,0-177.9,0v0Z" clip-rule="evenodd" fill="#99cbee" fill-rule="evenodd"/><path d="M55.6,208.6h-5.4c-6.5,0-11.9-4.7-12.9-11.1l-9.9-66.8c-.6-3.9.5-7.4,3-10.4c2.6-3,5.9-4.5,9.8-4.5h5.4c6.5,0,11.9,4.7,12.9,11.1l9.9,66.8c.6,3.9-.5,7.4-3,10.4-2.6,3-5.9,4.5-9.8,4.5v0Z" clip-rule="evenodd" fill="#71b1dd" fill-rule="evenodd"/><path d="M192.6,173.9h-153.2c-7.9,0-14.4,6.5-14.4,14.4v81.5c0,7.9,6.5,14.4,14.4,14.4h153.2v-110.3Z" clip-rule="evenodd" fill="#71b1dd" fill-rule="evenodd"/><path d="M192.6,173.9h-29.9c-7.9,0-14.4,6.5-14.4,14.4v95.9h44.3v-110.3Z" clip-rule="evenodd" fill="#99cbee" fill-rule="evenodd"/><path d="M310.6,246.4h-118v-37.8h103.4c8,0,14.6,6.6,14.6,14.6v23.2Z" clip-rule="evenodd" fill="#cce9fb" fill-rule="evenodd"/><polygon points="310.6,246.4 192.6,246.4 192.6,284.2 246.6,284.2" clip-rule="evenodd" fill="#5699c6" fill-rule="evenodd"/><path d="M192.6,215.1v-6.5h103.4c5,0,9.5,2.6,12.1,6.5h-115.5v0Z" clip-rule="evenodd" fill="#e2f2fc" fill-rule="evenodd"/></g><g><path d="M226.1,269.8v14.4h134.5v0c.1,0,.2,0,.4,0v0c.1,0,.2,0,.4,0v0c.1,0,.2,0,.4,0v0c.1,0,.2,0,.4,0c.1,0,.2,0,.4,0v0c.1,0,.2,0,.4-.1.1,0,.2,0,.4-.1.1,0,.2,0,.4-.1v0c.1,0,.2,0,.3-.1v0c.1,0,.2-.1.3-.1s.2-.1.3-.1v0c.1,0,.2-.1.3-.1v0c.1,0,.2-.1.3-.1s.2-.1.3-.1v0c.1,0,.2-.1.3-.1v0c.1,0,.2-.1.3-.1s.2-.1.3-.1.2-.1.3-.1c.1-.1.2-.1.3-.2v0c.1-.1.2-.1.3-.2s.2-.1.3-.2.2-.1.3-.2v0c.1-.1.2-.1.3-.2v0c.1-.1.2-.1.3-.2.2-.1.4-.3.6-.4v0c.1-.1.2-.1.3-.2v0c.3-.2.5-.4.8-.7.2-.2.3-.3.5-.5v0c.1-.1.2-.2.2-.2.1-.1.2-.2.2-.3v0c.1-.1.2-.2.2-.3.1-.1.1-.2.2-.3.2-.3.4-.5.6-.8v0c.1-.1.1-.2.2-.3v0c.3-.4.5-.8.7-1.2v0c.1-.2.2-.4.3-.6v0c.1-.2.2-.4.3-.6v0c0-.1.1-.2.1-.3v0c0-.1.1-.2.1-.3v0c0-.1.1-.2.1-.3v0c0-.1.1-.2.1-.3v0c0-.1.1-.2.1-.3v0c.1-.2.1-.5.2-.7v0c0-.1.1-.2.1-.3v0c0-.1,0-.2.1-.4v0c0-.1,0-.2.1-.4v0c0-.1,0-.2,0-.4v0c0-.1,0-.2,0-.4v0c0-.1,0-.2,0-.4v0c0-.1,0-.2,0-.4v0c0-.1,0-.2,0-.4v0c0-.1,0-.2,0-.4v0l-148.6.2v0Zm147.2,6.8c.1-.2.2-.4.3-.6l-.3.6Zm0,0c.1-.2.2-.4.3-.6l-.3.6Zm.5-1.6c.1-.2.1-.5.2-.7l-.2.7Z" clip-rule="evenodd" fill="#5e1617" fill-rule="evenodd"/><path d="M375,269.8c0,.1,0,.2,0,.4v0c0,.1,0,.2,0,.4v0c0,.1,0,.2,0,.4v0c0,.1,0,.2,0,.4v0c0,.1,0,.2,0,.4v0c0,.1,0,.2,0,.4v0c0,.1,0,.2-.1.4v0c0,.1,0,.2-.1.4v0c0,.1,0,.2-.1.3v0c-.1.2-.1.5-.2.7v0c0,.1-.1.2-.1.3v0c0,.1-.1.2-.1.3v0c0,.1-.1.2-.1.3v0c0,.1-.1.2-.1.3v0c0,.1-.1.2-.1.3v0c-.1.2-.2.4-.3.6v0c-.1.2-.2.4-.3.6v0c-.2.4-.5.8-.7,1.2v0c-.1.1-.1.2-.2.3v0c-.2.3-.4.6-.6.8v0c-.1.1-.1.2-.2.3v0c-.2.2-.3.3-.5.5v0c-.2.3-.5.5-.7.7v0c-.5.5-1.1.9-1.6,1.3v0c-.3.2-.6.4-.9.6v0c-.1.1-.2.1-.3.2v0c-.1.1-.2.1-.3.2v0c-.1.1-.2.1-.3.2v0c-.1,0-.2.1-.3.1v0c-.1,0-.2.1-.3.1v0c-.1,0-.2.1-.3.1v0c-.1,0-.2.1-.3.1v0c-.1,0-.2.1-.3.1v0c-.1,0-.2.1-.3.1v0c-.1,0-.2.1-.3.1v0c-.1,0-.2.1-.3.1v0c-.1,0-.2.1-.3.1v0c-.1,0-.2.1-.3.1v0c-.1,0-.2,0-.4.1v0c-.1,0-.2,0-.4.1v0c-.1,0-.2,0-.4.1v0c-.1,0-.2,0-.4,0v0c-.1,0-.2,0-.4,0v0c-.1,0-.2,0-.4,0v0c-.1,0-.2,0-.4,0v0c-.1,0-.2,0-.4,0v0h-29.5c-.2,0-.4-.2-.4-.4v-14l44-.1v0Z" clip-rule="evenodd" fill="#802d2d" fill-rule="evenodd"/><path d="M25,269.8c0,.1,0,.2,0,.4c0,.1,0,.2,0,.4c0,.1,0,.2,0,.4c0,.1,0,.2,0,.4c0,.1,0,.2,0,.4c0,.1,0,.2.1.4c0,.1,0,.2.1.4c0,.1,0,.2.1.4c0,.1.1.2.1.3s.1.2.1.3v0c0,.1.1.2.1.3s.1.2.1.3.1.2.1.3.1.2.1.3.1.2.1.3.1.2.1.3.1.2.1.3v0c0,.1.1.2.1.3.1.1.1.2.2.3v0c.1.1.1.2.2.3v0c.1.1.1.2.2.3v0c.1.1.1.2.2.3v0c.1.1.1.2.2.3v0c.1.1.1.2.2.3s.1.2.2.3.1.2.2.3v0c.1.1.1.2.2.3v0c.1.1.1.2.2.3s.1.2.2.3.2.2.2.3v0c.1.1.2.2.2.3.1.1.2.2.2.2v0c.1.1.2.2.2.2v0c.1.1.2.2.3.2.1.1.2.2.3.2v0c.1.1.2.2.3.2v0c.1.1.2.1.3.2v0c.1.1.2.1.3.2v0c.1.1.2.1.3.2v0c.1.1.2.1.3.2s.2.1.3.2v0c.1.1.2.1.3.2s.2.1.3.2.2.1.3.2.2.1.3.2v0c.1.1.2.1.3.2.1,0,.2.1.3.1s.2.1.3.1.2.1.3.1.2.1.3.1.2.1.3.1.2.1.3.1.2.1.3.1.2.1.3.1v0c.1,0,.2.1.3.1s.2.1.4.1.2,0,.4.1v0c.1,0,.2,0,.4.1v0c.1,0,.2,0,.4.1.1,0,.2,0,.4,0v0c.1,0,.2,0,.4,0c.1,0,.2,0,.4,0v0c.1,0,.2,0,.4,0v0c.1,0,.2,0,.4,0v0h153.2v-14.4h-167.7v0Z" clip-rule="evenodd" fill="#5e1617" fill-rule="evenodd"/><polygon points="148.3,269.8 148.3,284.2 192.6,284.2 192.6,269.8" clip-rule="evenodd" fill="#802d2d" fill-rule="evenodd"/><polygon points="192.6,269.8 192.6,284.2 246.6,284.2 271,269.8" clip-rule="evenodd" fill="#471213" fill-rule="evenodd"/></g></g></svg>
